<svg width="170" height="48" viewBox="0 0 170 48" fill="none" xmlns="http://www.w3.org/2000/svg">
<path fill-rule="evenodd" clip-rule="evenodd" d="M23.8165 43.0378C25.7495 43.0378 27.3165 41.4782 27.3165 39.5545C27.3165 37.6307 25.7495 36.0712 23.8165 36.0712C21.8835 36.0712 20.3165 37.6307 20.3165 39.5545C20.3165 41.4782 21.8835 43.0378 23.8165 43.0378ZM23.8166 41.4892C24.8905 41.4892 25.761 40.6228 25.761 39.5541C25.761 38.4853 24.8905 37.6189 23.8166 37.6189C22.7427 37.6189 21.8721 38.4853 21.8721 39.5541C21.8721 40.6228 22.7427 41.4892 23.8166 41.4892Z" fill="#FFB71A"/>
<path fill-rule="evenodd" clip-rule="evenodd" d="M35.8165 43.0378C37.7495 43.0378 39.3165 41.4782 39.3165 39.5545C39.3165 37.6307 37.7495 36.0712 35.8165 36.0712C33.8835 36.0712 32.3165 37.6307 32.3165 39.5545C32.3165 41.4782 33.8835 43.0378 35.8165 43.0378ZM35.8166 41.4892C36.8905 41.4892 37.761 40.6228 37.761 39.5541C37.761 38.4853 36.8905 37.6189 35.8166 37.6189C34.7427 37.6189 33.8721 38.4853 33.8721 39.5541C33.8721 40.6228 34.7427 41.4892 35.8166 41.4892Z" fill="#FFB71A"/>
<path d="M1.31621 12.6864L6.98549 12.6855C7.792 12.6854 8.52064 13.1665 8.83463 13.9065L17.2988 33.8546C17.6127 34.5944 18.3412 35.0755 19.1476 35.0755L44.8165 35.0759" stroke="#FFB71A" stroke-width="2.5" stroke-linecap="round"/>
<path d="M19.6249 25.3775C19.3077 24.1147 20.2626 22.8903 21.5647 22.8903H30.0049C30.5545 22.8903 31.0001 23.3358 31.0001 23.8855C31.0001 24.4351 30.5545 24.8807 30.0049 24.8807H25.9953C25.4457 24.8807 25.0001 25.3263 25.0001 25.8759C25.0001 26.4256 25.4457 26.8712 25.9953 26.8712H37.0049C37.5545 26.8712 38.0001 27.3167 38.0001 27.8664C38.0001 28.416 37.5545 28.8616 37.0049 28.8616H31.9953C31.4457 28.8616 31.0001 29.3072 31.0001 29.8568C31.0001 30.4065 31.4457 30.8521 31.9953 30.8521H43.0049C43.5545 30.8521 44.0001 31.2976 44.0001 31.8473C44.0001 32.3969 43.5545 32.8425 43.0049 32.8425H23.0599C22.143 32.8425 21.3435 32.219 21.1201 31.3298L19.6249 25.3775Z" fill="#064BEF"/>
<path d="M43.3753 22.3934C43.6925 23.6562 42.7377 24.8806 41.4356 24.8806H32.9953C32.4457 24.8806 32.0001 24.435 32.0001 23.8854C32.0001 23.3357 32.4457 22.8902 32.9953 22.8902H37.0049C37.5545 22.8902 38.0001 22.4446 38.0001 21.8949C38.0001 21.3453 37.5545 20.8997 37.0049 20.8997H25.9953C25.4457 20.8997 25.0001 20.4541 25.0001 19.9045C25.0001 19.3548 25.4457 18.9093 25.9953 18.9093H31.0049C31.5545 18.9093 32.0001 18.4637 32.0001 17.914C32.0001 17.3644 31.5545 16.9188 31.0049 16.9188H19.9953C19.4457 16.9188 19.0001 16.4732 19.0001 15.9236C19.0001 15.3739 19.4457 14.9284 19.9953 14.9284L39.9404 14.9284C40.8573 14.9284 41.6567 15.5518 41.8801 16.4411L43.3753 22.3934Z" fill="#EFAE1A"/>
<path d="M65.625 24.3427V24.7177H66.7V24.9677H65.575V25.2177H66.05V25.7177H66.125V26.2177H66.6V26.4677H65.925V26.6427C65.925 26.7261 65.9167 26.7927 65.9 26.8427H65.775C65.7083 27.0261 65.6083 27.1511 65.475 27.2177H65.7C65.6167 27.2844 65.5 27.3177 65.35 27.3177H62.5V27.5927H62.4V28.0927H62.225V28.3427H62.55V28.5927H62.5V28.8427H62.05V29.3427H63.7V29.8427H65.575V30.3427H63.6V30.5927H66.15V30.9677H62.75V31.0927H61.975V31.5927H63.2V31.8427H63.675V31.9677H63.925V32.4677H62.9V32.8427H64V33.3427H64.05V33.8427H63V34.2177H62.9V34.3427H62.5V34.8427H61.625V35.3427H62.25C62.2167 35.5761 62.1167 35.7427 61.95 35.8427H62.175C62.0917 35.9094 61.975 35.9427 61.825 35.9427H57.45C57.3 35.9427 57.1833 35.9094 57.1 35.8427H56.85C56.6833 35.7427 56.5833 35.5761 56.55 35.3427H55.9V34.8427H56.775V34.3427H57.175V34.2177H57.275V33.8427H58.325V33.3427H58.275V32.8427H57.175V32.4677H58.2V31.9677H57.95V31.8427H57.475V31.5927H56.25V31.0927H57.025V30.9677H60.425V30.5927H57.875V30.3427H59.85V29.8427H57.975V29.3427H56.325V28.8427H56.775V28.5927H56.825V28.3427H56.5V28.0927H56.675V27.5927H56.775V27.3177H55.05C54.9 27.3177 54.7833 27.2844 54.7 27.2177H54.475C54.3417 27.1511 54.2417 27.0261 54.175 26.8427H54.325C54.3083 26.8094 54.2917 26.7761 54.275 26.7427C54.275 26.7094 54.275 26.6761 54.275 26.6427V26.4677H54.95V26.2177H54.475V25.7177H54.4V25.2177H53.925V24.9677H55.05V24.7177H53.975V24.3427H54.4V24.0927H54.375V23.7177H54.575V23.6177C54.575 23.5011 54.6 23.4094 54.65 23.3427H55.875C55.9917 23.0761 56.1917 22.9427 56.475 22.9427H58.2V22.8427H58.6V22.3427H55.875V22.0927H57.1C57.1167 22.0594 57.125 22.0177 57.125 21.9677H56.9C56.9 21.9011 56.9 21.8427 56.9 21.7927C56.9167 21.7261 56.9333 21.6594 56.95 21.5927H56.75C56.7667 21.5094 56.7833 21.4261 56.8 21.3427C56.8167 21.2427 56.8333 21.1594 56.85 21.0927H56.8C56.8 21.0594 56.8 21.0344 56.8 21.0177C56.8167 21.0011 56.825 20.9844 56.825 20.9677H57C57 20.9344 57 20.9094 57 20.8927C57.0167 20.8761 57.025 20.8594 57.025 20.8427H56.975C56.9917 20.7761 57.0083 20.7177 57.025 20.6677C57.0417 20.6011 57.0583 20.5344 57.075 20.4677H57.1C57.1333 20.3844 57.1667 20.3011 57.2 20.2177C57.2333 20.1177 57.275 20.0344 57.325 19.9677H57.425C57.4583 19.8844 57.5 19.8011 57.55 19.7177H57.05C57.15 19.5511 57.2667 19.3844 57.4 19.2177H57.075L57.45 18.8427H57.95C58.0333 18.7761 58.1083 18.7177 58.175 18.6677C58.2583 18.6011 58.3417 18.5344 58.425 18.4677H58.275C58.5083 18.3011 58.7417 18.1761 58.975 18.0927H58.95C59 18.0594 59.05 18.0344 59.1 18.0177C59.15 18.0011 59.2 17.9844 59.25 17.9677H58.85C59.3833 17.7677 59.9583 17.6344 60.575 17.5677C61.1917 17.4844 61.8333 17.4427 62.5 17.4427H64.825C65.1917 17.4427 65.4167 17.6177 65.5 17.9677H65.875C65.8917 18.0011 65.9 18.0427 65.9 18.0927H65.925V18.4677H66.075V18.8427H65.575V19.2177H65.9V19.7177H66.4V19.9677H66.3V20.4677H66.275V20.8427H66.325V20.9677H66.175V21.0927H66.2V21.1427C66.2 21.3261 66.1417 21.4761 66.025 21.5927H66.225C66.1083 21.7427 65.9333 21.8177 65.7 21.8177H63.675C63.3583 21.8177 63.125 21.8677 62.975 21.9677H63.175C63.1417 21.9844 63.0917 22.0261 63.025 22.0927H61.8C61.7167 22.1761 61.6667 22.2594 61.65 22.3427H64.375C64.3583 22.3927 64.3417 22.4427 64.325 22.4927C64.325 22.5427 64.325 22.5927 64.325 22.6427V22.8427H63.925V22.9427H66.775C67.075 22.9427 67.2833 23.0761 67.4 23.3427H66.175C66.2083 23.4427 66.225 23.5344 66.225 23.6177V23.7177H66.025V24.0927H66.05V24.3427H65.625ZM80.3344 34.5927V34.8427H82.5094V35.2677C82.5094 35.3011 82.501 35.3261 82.4844 35.3427H81.3094C81.276 35.5761 81.1677 35.7427 80.9844 35.8427H80.7594C80.676 35.9094 80.5594 35.9427 80.4094 35.9427H76.0344C75.8844 35.9427 75.7677 35.9094 75.6844 35.8427H75.8844C75.7177 35.7261 75.6177 35.5594 75.5844 35.3427H76.7844V34.8427H75.7844C75.701 34.9261 75.6094 35.0094 75.5094 35.0927C75.426 35.1761 75.3344 35.2594 75.2344 35.3427H74.9594C74.6594 35.5594 74.3594 35.7261 74.0594 35.8427H73.2594C73.1427 35.8927 73.0094 35.9344 72.8594 35.9677C72.726 36.0177 72.5844 36.0594 72.4344 36.0927H72.2344C72.0677 36.1261 71.8927 36.1511 71.7094 36.1677C71.5427 36.1844 71.3677 36.1927 71.1844 36.1927C70.9844 36.1927 70.7844 36.1844 70.5844 36.1677C70.401 36.1511 70.2177 36.1261 70.0344 36.0927H70.2344C70.0677 36.0594 69.901 36.0177 69.7344 35.9677C69.5844 35.9344 69.4344 35.8927 69.2844 35.8427H70.0594C69.6927 35.7094 69.3594 35.5427 69.0594 35.3427H69.3344C69.2177 35.2594 69.1094 35.1761 69.0094 35.0927C68.9094 35.0094 68.8094 34.9261 68.7094 34.8427H67.4594L67.2344 34.5927C67.2177 34.5594 67.1927 34.5177 67.1594 34.4677C67.126 34.4177 67.0927 34.3761 67.0594 34.3427H67.8094C67.776 34.2761 67.7344 34.2177 67.6844 34.1677C67.651 34.1011 67.6177 34.0344 67.5844 33.9677H67.3594C67.3594 33.9511 67.3427 33.9094 67.3094 33.8427H67.0844L67.0094 33.7177H67.0344L66.8844 33.3427H66.7594C66.7427 33.2761 66.726 33.2177 66.7094 33.1677C66.6927 33.1011 66.676 33.0344 66.6594 32.9677H65.7094C65.6594 32.7844 65.6344 32.6177 65.6344 32.4677H66.4594V32.2177C66.4594 32.1344 66.4594 32.0511 66.4594 31.9677C66.4594 31.8677 66.4677 31.7844 66.4844 31.7177H67.2344C67.251 31.6344 67.2677 31.5511 67.2844 31.4677C67.301 31.3677 67.3177 31.2844 67.3344 31.2177H66.6344L66.6844 31.0927H66.7094L66.7594 30.9677H66.7344C66.7677 30.9011 66.801 30.8427 66.8344 30.7927C66.8677 30.7261 66.8927 30.6594 66.9094 30.5927H65.4344L65.5844 30.3427H65.0344C65.0844 30.2927 65.1177 30.2511 65.1344 30.2177H66.0344C66.0677 30.1844 66.101 30.1427 66.1344 30.0927C66.1677 30.0427 66.201 30.0011 66.2344 29.9677H66.2844C66.451 29.7677 66.626 29.6011 66.8094 29.4677H64.7594C64.876 29.3844 65.001 29.3011 65.1344 29.2177C65.251 29.1177 65.376 29.0344 65.5094 28.9677H66.8844L67.1094 28.8427H67.8094C67.8427 28.8094 67.8844 28.7844 67.9344 28.7677C67.9844 28.7511 68.026 28.7344 68.0594 28.7177H68.3594C68.6594 28.5677 68.9844 28.4427 69.3344 28.3427H70.8594C71.0927 28.2594 71.326 28.1927 71.5594 28.1427C71.8094 28.0761 72.0677 28.0177 72.3344 27.9677H71.7094L72.1094 27.8927L74.7594 27.4677V27.3427H76.0344V27.2177H73.6344V27.0927H75.0594C75.0594 27.0094 75.0594 26.9427 75.0594 26.8927C75.0594 26.8261 75.051 26.7677 75.0344 26.7177C75.0177 26.5677 74.9594 26.4427 74.8594 26.3427H74.4344C74.4177 26.3261 74.376 26.3011 74.3094 26.2677L74.1344 26.3427H73.7094C73.6427 26.3927 73.576 26.4511 73.5094 26.5177C73.4427 26.5677 73.3677 26.6344 73.2844 26.7177H73.3094C73.126 26.9011 72.8927 26.9927 72.6094 26.9927H68.3594C68.1094 26.9927 67.9427 26.9011 67.8594 26.7177H67.8344C67.7844 26.6344 67.7677 26.5427 67.7844 26.4427V26.3427H68.1844C68.201 26.3094 68.2094 26.2677 68.2094 26.2177H66.6094C66.6094 26.1511 66.626 26.0677 66.6594 25.9677H70.2594C70.2594 25.9511 70.276 25.9094 70.3094 25.8427H68.0844C68.1344 25.6761 68.2094 25.5094 68.3094 25.3427H68.7344C68.7844 25.2594 68.8427 25.1761 68.9094 25.0927C68.976 25.0094 69.0427 24.9261 69.1094 24.8427H67.2344L67.4594 24.5927H71.0844C71.151 24.5261 71.2177 24.4677 71.2844 24.4177C71.3677 24.3511 71.4427 24.2844 71.5094 24.2177H69.2094L69.3594 24.0927H68.6594C68.7427 24.0261 68.8344 23.9677 68.9344 23.9177C69.0344 23.8511 69.1344 23.7844 69.2344 23.7177H70.4094C70.7594 23.5177 71.126 23.3511 71.5094 23.2177H71.6844C72.1344 23.0511 72.6344 22.9261 73.1844 22.8427C73.751 22.7427 74.3677 22.6927 75.0344 22.6927C76.401 22.6927 77.5594 22.8677 78.5094 23.2177H78.3094C78.4927 23.2844 78.6677 23.3594 78.8344 23.4427C79.0177 23.5261 79.1927 23.6177 79.3594 23.7177H78.1844L78.7094 24.0927H79.4094L79.5594 24.2177H81.8594L82.2344 24.5927H78.6094C78.6427 24.6261 78.676 24.6677 78.7094 24.7177C78.7427 24.7677 78.776 24.8094 78.8094 24.8427H80.6594C80.726 24.9094 80.7844 24.9927 80.8344 25.0927C80.901 25.1761 80.951 25.2594 80.9844 25.3427H80.5844L80.8094 25.8427H83.0344C83.0677 25.9094 83.0844 25.9511 83.0844 25.9677H79.4844C79.5177 26.0011 79.5344 26.0427 79.5344 26.0927C79.551 26.1427 79.5677 26.1844 79.5844 26.2177H80.4094C80.4094 26.2344 80.4094 26.2511 80.4094 26.2677C80.426 26.2844 80.4344 26.3094 80.4344 26.3427H80.8594L81.0094 27.0927H79.5594C79.5594 27.1094 79.5594 27.1261 79.5594 27.1427C79.576 27.1594 79.5844 27.1844 79.5844 27.2177H81.9844V27.3427H80.7344V27.4677C80.751 27.5511 80.7594 27.6344 80.7594 27.7177C80.7594 27.8011 80.7594 27.8844 80.7594 27.9677H81.4094V28.3427H79.8594V28.7177H79.5844V28.8427H78.9094V28.9677H77.5344V29.4677H79.5844V29.9677H79.5344V30.2177H78.6344V30.3427H79.1844V30.5927H80.8344V30.9677H80.5344V31.2177H80.7344V31.7177H80.5844V32.4677H79.7594V32.9677H80.7094V33.3427H80.8344V33.8427H81.0594V33.9677H81.2594V34.3427H80.4844V34.5927H80.3344ZM73.0844 26.1927C72.9677 26.1927 72.8844 26.2011 72.8344 26.2177H73.3594C73.3094 26.2011 73.2177 26.1927 73.0844 26.1927ZM73.2594 30.5427L73.0344 30.5927H73.2594V30.5427ZM72.4094 31.2177H73.1094C72.926 31.3511 72.8344 31.5177 72.8344 31.7177H72.0844V31.7927C72.0844 31.9594 72.1427 32.1011 72.2594 32.2177C72.3427 32.3344 72.5094 32.4177 72.7594 32.4677H73.3594C73.6094 32.4177 73.826 32.3344 74.0094 32.2177C74.1594 32.0844 74.301 31.9177 74.4344 31.7177H74.5594C74.5927 31.6344 74.626 31.5594 74.6594 31.4927C74.6927 31.4094 74.7177 31.3177 74.7344 31.2177H74.5344C74.5344 31.1844 74.5344 31.1594 74.5344 31.1427C74.551 31.1261 74.5594 31.1094 74.5594 31.0927H74.5844V30.9677H74.8844C74.901 30.9011 74.9094 30.8427 74.9094 30.7927C74.9094 30.7261 74.9094 30.6594 74.9094 30.5927H74.4844L73.2594 30.8677C73.1927 30.8844 73.126 30.9011 73.0594 30.9177C73.0094 30.9344 72.9594 30.9511 72.9094 30.9677C72.8594 30.9844 72.8094 31.0011 72.7594 31.0177C72.7094 31.0344 72.6677 31.0594 72.6344 31.0927H72.6094C72.576 31.1094 72.5427 31.1261 72.5094 31.1427C72.476 31.1594 72.4427 31.1844 72.4094 31.2177ZM72.5344 32.4677H71.9094C71.976 32.4844 72.076 32.4927 72.2094 32.4927C72.2594 32.4927 72.3094 32.4927 72.3594 32.4927C72.426 32.4927 72.4844 32.4844 72.5344 32.4677ZM97.1611 33.7177H96.1361C96.0361 33.8844 95.9195 34.0511 95.7861 34.2177H96.2361C96.2195 34.2511 96.1861 34.2927 96.1361 34.3427H95.0361C94.9695 34.4094 94.9028 34.4761 94.8361 34.5427C94.7861 34.5927 94.7195 34.6511 94.6361 34.7177H94.6111C94.5278 34.7844 94.4361 34.8511 94.3361 34.9177C94.2528 34.9677 94.1611 35.0261 94.0611 35.0927H93.6111C93.4611 35.1927 93.2945 35.2844 93.1111 35.3677C92.9278 35.4344 92.7445 35.5094 92.5611 35.5927H92.4611C92.4111 35.6094 92.3528 35.6261 92.2861 35.6427C92.2361 35.6594 92.1695 35.6844 92.0861 35.7177H94.9361C94.8695 35.7344 94.7945 35.7511 94.7111 35.7677C94.6445 35.7844 94.5695 35.8094 94.4861 35.8427H93.2361C93.0195 35.8927 92.7945 35.9344 92.5611 35.9677C92.3278 36.0177 92.0861 36.0594 91.8361 36.0927H91.0861C90.8195 36.1261 90.5361 36.1511 90.2361 36.1677C89.9361 36.1844 89.6195 36.1927 89.2861 36.1927C88.9695 36.1927 88.6695 36.1844 88.3861 36.1677C88.1195 36.1511 87.8611 36.1261 87.6111 36.0927H88.3361C88.1028 36.0594 87.8778 36.0177 87.6611 35.9677C87.4445 35.9344 87.2361 35.8927 87.0361 35.8427H88.2861L87.8611 35.7177H85.0111C84.9611 35.6844 84.9028 35.6594 84.8361 35.6427C84.7861 35.6261 84.7278 35.6094 84.6611 35.5927H84.7361C84.5528 35.5094 84.3695 35.4261 84.1861 35.3427C84.0195 35.2594 83.8528 35.1761 83.6861 35.0927H84.1361C84.0361 35.0261 83.9361 34.9677 83.8361 34.9177C83.7528 34.8511 83.6695 34.7844 83.5861 34.7177H83.6361C83.5528 34.6511 83.4778 34.5927 83.4111 34.5427C83.3445 34.4761 83.2778 34.4094 83.2111 34.3427H84.2861C84.2695 34.3094 84.2528 34.2844 84.2361 34.2677C84.2195 34.2511 84.2028 34.2344 84.1861 34.2177H83.7111C83.6445 34.1344 83.5778 34.0511 83.5111 33.9677C83.4445 33.8844 83.3778 33.8011 83.3111 33.7177H84.3611C84.2945 33.6344 84.2445 33.5511 84.2111 33.4677C84.1778 33.3677 84.1445 33.2844 84.1111 33.2177H83.6361C83.6028 33.1511 83.5861 33.1094 83.5861 33.0927H82.8111L82.7361 32.8427H82.1611C82.1445 32.7927 82.1361 32.7177 82.1361 32.6177C82.1361 32.4844 82.1445 32.3927 82.1611 32.3427H82.3361C82.4195 32.1427 82.5528 32.0177 82.7361 31.9677H82.6861C82.7195 31.9511 82.7778 31.9427 82.8611 31.9427H87.3111C87.3278 31.9427 87.3445 31.9511 87.3611 31.9677C87.3945 31.9677 87.4195 31.9677 87.4361 31.9677H87.4861C87.6195 32.0011 87.7361 32.0511 87.8361 32.1177C87.9528 32.1844 88.0695 32.2594 88.1861 32.3427H88.0361C88.1695 32.4261 88.3111 32.5094 88.4611 32.5927C88.6111 32.6594 88.7861 32.6927 88.9861 32.6927C89.1195 32.6927 89.2445 32.6677 89.3611 32.6177C89.4778 32.5511 89.5445 32.4594 89.5611 32.3427H89.6361V32.3177C89.6361 32.1677 89.6028 32.0511 89.5361 31.9677C89.4695 31.8677 89.3611 31.7844 89.2111 31.7177H88.9111C88.7445 31.6344 88.5195 31.5511 88.2361 31.4677C87.9695 31.3844 87.5945 31.3011 87.1111 31.2177H87.3361L86.9361 31.1427C86.8028 31.1094 86.6695 31.0844 86.5361 31.0677C86.4028 31.0344 86.2695 31.0011 86.1361 30.9677H86.2361L85.8111 30.8427H85.8611C85.6445 30.7761 85.4361 30.7011 85.2361 30.6177C85.0361 30.5344 84.8445 30.4427 84.6611 30.3427H84.7611L84.1611 29.9677H84.1111C83.9945 29.8844 83.8861 29.8011 83.7861 29.7177C83.7028 29.6344 83.6195 29.5511 83.5361 29.4677H83.0111C82.9945 29.4344 82.9778 29.4094 82.9611 29.3927C82.9445 29.3761 82.9278 29.3594 82.9111 29.3427H83.1361C83.0861 29.2927 83.0528 29.2511 83.0361 29.2177H82.3361L82.0611 28.8427H83.1361L82.9861 28.5927H82.6361C82.5528 28.4094 82.4861 28.2427 82.4361 28.0927H82.5861C82.5861 28.0594 82.5778 28.0344 82.5611 28.0177C82.5611 28.0011 82.5611 27.9844 82.5611 27.9677H83.7361C83.7361 27.9011 83.7195 27.8177 83.6861 27.7177H81.4861C81.4861 27.6511 81.4861 27.5927 81.4861 27.5427C81.4695 27.4761 81.4528 27.4094 81.4361 27.3427H81.4611L81.4361 27.0927H83.1111C83.0945 27.0594 83.0861 27.0177 83.0861 26.9677C83.0861 26.9011 83.0861 26.8427 83.0861 26.7927C83.1028 26.7261 83.1111 26.6594 83.1111 26.5927H81.9361L81.9611 26.3427H83.0861L83.1611 26.0927H82.6611C82.6778 26.0594 82.6945 26.0177 82.7111 25.9677C82.7278 25.9177 82.7445 25.8761 82.7611 25.8427H82.5611C82.5945 25.7761 82.6278 25.7177 82.6611 25.6677C82.6945 25.6011 82.7195 25.5344 82.7361 25.4677H82.8361L82.9861 25.2177H82.9611C82.9945 25.1511 83.0361 25.0927 83.0861 25.0427C83.1361 24.9761 83.1861 24.9094 83.2361 24.8427C83.2861 24.7761 83.3361 24.7177 83.3861 24.6677C83.4361 24.6011 83.4945 24.5344 83.5611 24.4677H83.5111L83.6361 24.3427H83.6111C83.6278 24.3094 83.6445 24.2844 83.6611 24.2677C83.6945 24.2511 83.7195 24.2344 83.7361 24.2177H83.7861L84.0861 23.9677C84.1195 23.9344 84.1445 23.9094 84.1611 23.8927C84.1945 23.8761 84.2278 23.8594 84.2611 23.8427H83.7861C84.0695 23.6594 84.3778 23.4927 84.7111 23.3427H85.4861C85.5361 23.3094 85.5861 23.2844 85.6361 23.2677C85.6861 23.2511 85.7445 23.2344 85.8111 23.2177H84.1111C84.1778 23.1844 84.2361 23.1594 84.2861 23.1427C84.3528 23.1261 84.4195 23.1094 84.4861 23.0927H85.5611C85.9778 22.9594 86.4195 22.8594 86.8861 22.7927C87.3695 22.7261 87.8778 22.6927 88.4111 22.6927C88.9611 22.6927 89.4778 22.7261 89.9611 22.7927C90.4445 22.8594 90.8945 22.9594 91.3111 23.0927H90.2361C90.3028 23.1094 90.3611 23.1261 90.4111 23.1427C90.4778 23.1594 90.5445 23.1844 90.6111 23.2177H92.2861L92.6361 23.3427H91.8611C92.0445 23.4094 92.2195 23.4927 92.3861 23.5927C92.5528 23.6761 92.7111 23.7594 92.8611 23.8427H93.3361L93.5361 23.9677H93.5611C93.6278 24.0011 93.6861 24.0427 93.7361 24.0927C93.8028 24.1427 93.8611 24.1844 93.9111 24.2177H93.8861L94.0361 24.3427H94.0611L94.2111 24.4677H94.2611C94.4111 24.5844 94.5361 24.7094 94.6361 24.8427C94.7695 24.9594 94.8695 25.0844 94.9361 25.2177H94.9611L95.1111 25.4677H94.9861C95.0195 25.5344 95.0528 25.6011 95.0861 25.6677C95.1195 25.7177 95.1445 25.7761 95.1611 25.8427H95.3361L95.4111 26.0927H95.8861L95.9111 26.2677V26.3427H96.3361C96.3361 26.4094 96.3195 26.4927 96.2861 26.5927C96.1695 26.8261 96.0028 26.9427 95.7861 26.9427H91.5861C91.4195 26.9427 91.2611 26.9094 91.1111 26.8427C90.9778 26.7594 90.8445 26.6761 90.7111 26.5927C90.5945 26.5094 90.4611 26.4261 90.3111 26.3427H89.8861C89.7195 26.2427 89.5361 26.1927 89.3361 26.1927C89.1695 26.1927 89.0361 26.2427 88.9361 26.3427H87.8361C87.7528 26.4261 87.7111 26.5094 87.7111 26.5927H88.8861C88.8861 26.6761 88.9028 26.7594 88.9361 26.8427C88.9695 26.9261 89.0445 27.0094 89.1611 27.0927H87.5111C87.5945 27.1261 87.6861 27.1677 87.7861 27.2177C87.8861 27.2677 88.0111 27.3094 88.1611 27.3427H88.1361C88.3361 27.4094 88.5861 27.4677 88.8861 27.5177C89.2028 27.5677 89.5695 27.6261 89.9861 27.6927C90.0195 27.6927 90.0445 27.7011 90.0611 27.7177C90.0945 27.7177 90.1195 27.7177 90.1361 27.7177H92.3361C92.5361 27.7511 92.7278 27.7927 92.9111 27.8427C93.1111 27.8761 93.2945 27.9177 93.4611 27.9677H92.2861C92.3528 27.9844 92.4111 28.0011 92.4611 28.0177C92.5278 28.0344 92.5945 28.0594 92.6611 28.0927H92.5111C92.7278 28.1594 92.9195 28.2344 93.0861 28.3177C93.2695 28.4011 93.4445 28.4927 93.6111 28.5927H93.9861L94.3861 28.8427H93.3111C93.3945 28.9094 93.4778 28.9761 93.5611 29.0427C93.6445 29.0927 93.7195 29.1511 93.7861 29.2177H94.4861L94.6111 29.3427H94.3861L94.5111 29.4677H95.0111C95.1945 29.6511 95.3278 29.8177 95.4111 29.9677H95.4611C95.5111 30.0344 95.5528 30.1011 95.5861 30.1677C95.6195 30.2177 95.6528 30.2761 95.6861 30.3427H95.5861C95.6195 30.4261 95.6528 30.5094 95.6861 30.5927C95.7361 30.6761 95.7695 30.7594 95.7861 30.8427H95.7111L95.7611 30.9677H95.6611C95.6778 31.0011 95.6861 31.0427 95.6861 31.0927C95.6861 31.1427 95.6945 31.1844 95.7111 31.2177H95.4861C95.5361 31.3844 95.5611 31.5511 95.5611 31.7177H95.8861V31.8927C95.8861 31.9594 95.8778 32.0344 95.8611 32.1177C95.8611 32.1844 95.8611 32.2594 95.8611 32.3427H95.7861C95.7695 32.4261 95.7528 32.5094 95.7361 32.5927C95.7361 32.6761 95.7195 32.7594 95.6861 32.8427H96.2611C96.2611 32.9261 96.2361 33.0094 96.1861 33.0927H96.9861C96.9528 33.1594 96.9361 33.2011 96.9361 33.2177H97.4111C97.3778 33.3011 97.3361 33.3844 97.2861 33.4677C97.2528 33.5511 97.2111 33.6344 97.1611 33.7177ZM109.31 33.0927H108.71V33.3427H109.61V33.5927H110.435V33.9677H109.86V34.3427H111.535V34.7177H108.81V35.2177H109.01V35.2677C109.01 35.3011 109.001 35.3261 108.985 35.3427C108.951 35.5094 108.893 35.6344 108.81 35.7177H108.61C108.543 35.7844 108.493 35.8261 108.46 35.8427H109.31C109.226 35.9094 109.11 35.9427 108.96 35.9427H106.135C105.851 35.9427 105.568 35.9344 105.285 35.9177C105.018 35.9011 104.76 35.8761 104.51 35.8427H103.66C103.543 35.8261 103.426 35.8094 103.31 35.7927C103.193 35.7594 103.068 35.7344 102.935 35.7177H103.135C102.918 35.6677 102.71 35.6094 102.51 35.5427C102.326 35.4761 102.143 35.4094 101.96 35.3427H101.985C101.935 35.3094 101.885 35.2844 101.835 35.2677C101.785 35.2511 101.743 35.2344 101.71 35.2177H101.51C101.376 35.1344 101.243 35.0594 101.11 34.9927C100.976 34.9094 100.843 34.8177 100.71 34.7177H103.46C103.393 34.6511 103.318 34.5927 103.235 34.5427C103.168 34.4761 103.101 34.4094 103.035 34.3427H101.36L101.035 33.9677H101.635C101.585 33.9011 101.535 33.8427 101.485 33.7927C101.451 33.7261 101.418 33.6594 101.385 33.5927H100.56L100.41 33.3427H99.5096C99.4929 33.3094 99.4762 33.2677 99.4596 33.2177C99.4429 33.1677 99.4179 33.1261 99.3846 33.0927H100.01L99.8596 32.7177H100.36L100.285 32.4677C100.251 32.3677 100.235 32.2844 100.235 32.2177H102.21C102.193 32.1511 102.176 32.0927 102.16 32.0427C102.16 31.9761 102.16 31.9094 102.16 31.8427H99.3096C99.3096 31.8094 99.3012 31.7844 99.2846 31.7677C99.2846 31.7511 99.2846 31.7344 99.2846 31.7177H99.2096C99.2096 31.6511 99.2012 31.5927 99.1846 31.5427C99.1846 31.4761 99.1846 31.4094 99.1846 31.3427H99.1096C99.1096 31.2761 99.1012 31.2177 99.0846 31.1677C99.0846 31.1011 99.0846 31.0344 99.0846 30.9677H99.4346V30.8427H99.2096V30.5927H99.0096V30.0927H99.3096V29.5927H99.0096V29.2177H99.2346V28.9677H99.2596V28.5927H99.3846V27.7177H99.4346V27.3427H99.5596V27.3177H97.5846C97.3346 27.3177 97.1346 27.2011 96.9846 26.9677H97.3596C97.3096 26.8677 97.2846 26.7594 97.2846 26.6427V26.4677H96.4846V26.0927H96.6596V25.5927H96.5346V25.3427H96.5846V25.0927H96.9596V24.9677H96.3346V24.5927H97.0846V24.2177H96.9346V23.9677H96.7596V23.5927H96.6096V23.4677H96.5346C96.5846 23.2177 96.7429 23.0511 97.0096 22.9677H97.1596C97.2096 22.9511 97.2762 22.9427 97.3596 22.9427H99.3346V22.8427H99.4346V22.4677H99.2346V22.2177H99.2096V21.8427H99.1096V21.7177H98.5096V21.4677H97.9346V21.3427H98.1346V21.2177H98.7096V20.7177H98.9346V20.4677H98.1346V20.2177H99.3596V19.8427H99.2346V19.7177H98.9596V19.4677H99.2096V19.3427H98.9596V18.9677H99.1846V18.8677C99.1846 18.7844 99.2012 18.6927 99.2346 18.5927H99.5596C99.6762 18.3261 99.8846 18.1927 100.185 18.1927H104.56C104.826 18.1927 105.035 18.3261 105.185 18.5927H104.86C104.893 18.6927 104.91 18.7844 104.91 18.8677V18.9677H104.685V19.3427H104.935V19.4677H104.685V19.7177H104.96V19.8427H105.085V20.2177H103.86V20.4677H104.66V20.7177H104.435V21.2177H103.86V21.3427H103.66V21.4677H104.235V21.7177H104.835V21.8427H104.935V22.2177H104.96V22.4677H105.16V22.8427H105.06V22.9427H108.21C108.293 22.9427 108.351 22.9511 108.385 22.9677H108.235C108.468 23.0511 108.626 23.2177 108.71 23.4677H108.785C108.785 23.4844 108.785 23.5011 108.785 23.5177C108.801 23.5344 108.81 23.5594 108.81 23.5927H108.96V23.9677H109.135V24.2177H109.285V24.5927H108.535V24.9677H109.16V25.0927H108.785V25.3427H108.735V25.5927H108.86V26.0927H108.685V26.4677H109.485V26.6427C109.485 26.7094 109.476 26.7677 109.46 26.8177C109.443 26.8677 109.418 26.9177 109.385 26.9677H109.035C108.885 27.2011 108.685 27.3177 108.435 27.3177H105.285V27.3427H105.16V27.7177H105.11V28.5927H104.985V28.9677H104.96V29.2177H104.735V29.5927H105.035V30.0927H104.735C104.735 30.1761 104.735 30.2594 104.735 30.3427C104.751 30.4261 104.768 30.5094 104.785 30.5927H105.01C105.043 30.6927 105.076 30.7761 105.11 30.8427H105.31L105.385 30.9677H105.035C105.218 31.2011 105.501 31.3177 105.885 31.3177H108.16C108.243 31.3177 108.301 31.3261 108.335 31.3427H108.41C108.61 31.3927 108.751 31.5177 108.835 31.7177H108.91C108.91 31.7344 108.91 31.7511 108.91 31.7677C108.926 31.7844 108.935 31.8094 108.935 31.8427H111.785C111.785 31.8594 111.785 31.8844 111.785 31.9177C111.801 31.9344 111.81 31.9594 111.81 31.9927V32.2177H109.81V32.7177H109.31V33.0927ZM124.69 27.8427H126.39C126.39 27.8594 126.382 27.8761 126.365 27.8927C126.349 27.9094 126.332 27.9344 126.315 27.9677H125.74C125.607 28.1344 125.424 28.2177 125.19 28.2177H120.315C120.082 28.2177 119.899 28.1344 119.765 27.9677H120.34L120.265 27.8427H118.54L118.465 27.7177C118.449 27.6511 118.407 27.5677 118.34 27.4677H117.915C117.815 27.2844 117.707 27.1594 117.59 27.0927H118.215C118.082 27.0094 117.924 26.9677 117.74 26.9677C117.54 26.9677 117.374 27.0094 117.24 27.0927H116.715C116.582 27.1594 116.474 27.2844 116.39 27.4677H116.165C116.132 27.5344 116.099 27.6177 116.065 27.7177H117.415C117.399 27.7511 117.39 27.7927 117.39 27.8427H118.065C118.049 27.8761 118.04 27.9177 118.04 27.9677H118.865C118.849 28.0011 118.84 28.0427 118.84 28.0927C118.84 28.1427 118.832 28.1844 118.815 28.2177H118.915V28.3427H117.94V28.5927H114.815V28.7177H119.615C119.599 28.8011 119.59 28.8844 119.59 28.9677C119.59 29.0511 119.59 29.1344 119.59 29.2177H115.165V29.3427H116.94V29.4677H116.465V29.9677H115.115C115.115 30.0344 115.115 30.1011 115.115 30.1677C115.115 30.2177 115.124 30.2761 115.14 30.3427V30.5927H116.64C116.64 30.7094 116.649 30.7927 116.665 30.8427H115.29C115.324 31.0594 115.357 31.2261 115.39 31.3427H115.115C115.215 31.5761 115.357 31.7427 115.54 31.8427H116.365C116.499 31.8927 116.64 31.9177 116.79 31.9177C116.974 31.9177 117.124 31.8927 117.24 31.8427H117.59C117.74 31.7594 117.882 31.5927 118.015 31.3427H117.34L117.415 31.1677C117.449 31.1011 117.482 31.0427 117.515 30.9927C117.565 30.9261 117.607 30.8761 117.64 30.8427H119.39C119.54 30.7261 119.707 30.6677 119.89 30.6677H124.765C124.932 30.6677 125.09 30.7261 125.24 30.8427H123.49C123.657 30.9761 123.724 31.1427 123.69 31.3427H124.365C124.349 31.4094 124.332 31.4844 124.315 31.5677C124.315 31.6511 124.299 31.7427 124.265 31.8427H123.89L123.815 32.0927H125.415L125.365 32.2177H124.84L124.79 32.3427H122.015L121.94 32.4677H124.965L124.69 32.9677H124.94L124.865 33.0927H122.99C122.94 33.1761 122.882 33.2594 122.815 33.3427C122.765 33.4261 122.707 33.5094 122.64 33.5927H122.19C122.174 33.6094 122.157 33.6261 122.14 33.6427C122.124 33.6594 122.107 33.6844 122.09 33.7177H123.815C123.799 33.7344 123.782 33.7511 123.765 33.7677C123.749 33.7844 123.732 33.8094 123.715 33.8427H122.465C122.449 33.8594 122.432 33.8761 122.415 33.8927C122.399 33.9094 122.374 33.9344 122.34 33.9677H123.39L123.14 34.2177H123.015L122.89 34.3427H123.19L122.89 34.5927H123.34C123.257 34.6594 123.165 34.7261 123.065 34.7927C122.982 34.8427 122.89 34.9011 122.79 34.9677H123.29L123.09 35.0927H122.54L122.09 35.3427H122.24C121.974 35.4927 121.674 35.6177 121.34 35.7177H120.915C120.765 35.7677 120.615 35.8177 120.465 35.8677C120.315 35.9011 120.165 35.9344 120.015 35.9677H119.79C119.674 35.9844 119.557 36.0011 119.44 36.0177C119.324 36.0511 119.207 36.0761 119.09 36.0927H119.59C119.357 36.1261 119.115 36.1511 118.865 36.1677C118.615 36.1844 118.357 36.1927 118.09 36.1927C117.84 36.1927 117.599 36.1844 117.365 36.1677C117.132 36.1511 116.899 36.1261 116.665 36.0927H116.14C116.024 36.0761 115.907 36.0511 115.79 36.0177C115.69 36.0011 115.582 35.9844 115.465 35.9677H115.69C115.54 35.9344 115.39 35.9011 115.24 35.8677C115.09 35.8177 114.949 35.7677 114.815 35.7177H115.24C114.924 35.6177 114.632 35.4927 114.365 35.3427H114.19C114.124 35.3094 114.049 35.2761 113.965 35.2427C113.899 35.1927 113.832 35.1427 113.765 35.0927H114.29L114.09 34.9677H113.59L113.09 34.5927H112.665C112.615 34.5594 112.565 34.5177 112.515 34.4677C112.465 34.4177 112.424 34.3761 112.39 34.3427H112.065L111.94 34.2177H112.065L111.815 33.9677H110.79C110.74 33.9177 110.707 33.8761 110.69 33.8427H111.94C111.89 33.7927 111.857 33.7511 111.84 33.7177H110.09C110.074 33.6844 110.04 33.6427 109.99 33.5927H110.44C110.374 33.5094 110.315 33.4261 110.265 33.3427C110.215 33.2594 110.165 33.1761 110.115 33.0927H111.99L111.915 32.9677H111.665C111.615 32.8844 111.565 32.8011 111.515 32.7177C111.482 32.6344 111.449 32.5511 111.415 32.4677H108.415L108.365 32.3427H111.14L111.09 32.2177H111.615L111.565 32.0927H109.965L109.89 31.8427H109.065C109.049 31.7594 109.032 31.6761 109.015 31.5927C108.999 31.5094 108.982 31.4261 108.965 31.3427H109.215L109.14 30.8427H110.515V30.5927H109.015V30.4677C108.999 30.3844 108.99 30.3011 108.99 30.2177C108.99 30.1344 108.99 30.0511 108.99 29.9677H110.34V29.4677H110.815V29.3427H109.04V29.2177H113.465V28.7177H108.69V28.5927H111.815V28.3427H112.79V28.2177H112.69C112.707 28.1844 112.715 28.1427 112.715 28.0927C112.715 28.0427 112.715 28.0011 112.715 27.9677H111.915V27.8427H111.24C111.24 27.7927 111.249 27.7511 111.265 27.7177H109.915C109.949 27.6177 109.965 27.5344 109.965 27.4677H110.215L110.29 27.0927H110.815L110.965 26.5927H111.015C111.032 26.5261 111.057 26.4677 111.09 26.4177C111.124 26.3511 111.149 26.2844 111.165 26.2177H111.04C111.074 26.1344 111.107 26.0511 111.14 25.9677C111.19 25.8677 111.24 25.7844 111.29 25.7177H111.14C111.174 25.6511 111.207 25.5927 111.24 25.5427C111.29 25.4761 111.34 25.4094 111.39 25.3427H111.415C111.482 25.2594 111.549 25.1761 111.615 25.0927C111.682 24.9927 111.749 24.9094 111.815 24.8427H111.84C111.94 24.7094 112.065 24.5844 112.215 24.4677H112.09L112.24 24.3427H112.19L112.34 24.2177H113.265C113.299 24.1844 113.332 24.1594 113.365 24.1427C113.399 24.1261 113.424 24.1094 113.44 24.0927H112.89C112.924 24.0594 112.957 24.0344 112.99 24.0177C113.024 24.0011 113.049 23.9844 113.065 23.9677H112.865C113.165 23.7677 113.457 23.6011 113.74 23.4677H114.24C114.34 23.4177 114.44 23.3761 114.54 23.3427C114.64 23.2927 114.74 23.2511 114.84 23.2177H114.265C114.332 23.1844 114.39 23.1594 114.44 23.1427C114.507 23.1261 114.574 23.1094 114.64 23.0927H114.615C114.699 23.0594 114.774 23.0344 114.84 23.0177C114.924 23.0011 114.999 22.9844 115.065 22.9677H114.99C115.724 22.7844 116.49 22.6927 117.29 22.6927C117.74 22.6927 118.165 22.7177 118.565 22.7677C118.965 22.8177 119.34 22.8844 119.69 22.9677H119.765C119.849 22.9844 119.924 23.0011 119.99 23.0177C120.074 23.0344 120.149 23.0594 120.215 23.0927H120.24C120.307 23.1094 120.365 23.1261 120.415 23.1427C120.482 23.1594 120.549 23.1844 120.615 23.2177H121.19C121.44 23.3011 121.649 23.3844 121.815 23.4677H121.29C121.457 23.5344 121.615 23.6177 121.765 23.7177C121.915 23.8011 122.065 23.8844 122.215 23.9677H122.415C122.449 23.9844 122.482 24.0011 122.515 24.0177C122.549 24.0344 122.574 24.0594 122.59 24.0927H123.14C123.174 24.1094 123.199 24.1261 123.215 24.1427C123.249 24.1594 123.282 24.1844 123.315 24.2177H122.39L122.54 24.3427H122.59L122.74 24.4677H122.84C122.924 24.5344 122.999 24.6011 123.065 24.6677C123.132 24.7177 123.199 24.7761 123.265 24.8427H123.24C123.324 24.9261 123.399 25.0094 123.465 25.0927C123.549 25.1761 123.624 25.2594 123.69 25.3427H123.665C123.715 25.4094 123.765 25.4761 123.815 25.5427C123.865 25.5927 123.907 25.6511 123.94 25.7177H124.09C124.157 25.8011 124.215 25.8844 124.265 25.9677C124.315 26.0511 124.357 26.1344 124.39 26.2177H124.54C124.574 26.2844 124.607 26.3511 124.64 26.4177C124.674 26.4677 124.699 26.5261 124.715 26.5927H124.69C124.724 26.6761 124.757 26.7594 124.79 26.8427C124.824 26.9261 124.849 27.0094 124.865 27.0927H124.24L124.315 27.4677H124.74V27.7177L124.69 27.8427ZM139.392 34.5927V34.8427H141.567V35.2677C141.567 35.3011 141.559 35.3261 141.542 35.3427H140.367C140.334 35.5761 140.225 35.7427 140.042 35.8427H139.817C139.734 35.9094 139.617 35.9427 139.467 35.9427H135.092C134.942 35.9427 134.825 35.9094 134.742 35.8427H134.942C134.775 35.7261 134.675 35.5594 134.642 35.3427H135.842V34.8427H134.842C134.759 34.9261 134.667 35.0094 134.567 35.0927C134.484 35.1761 134.392 35.2594 134.292 35.3427H134.017C133.717 35.5594 133.417 35.7261 133.117 35.8427H132.317C132.2 35.8927 132.067 35.9344 131.917 35.9677C131.784 36.0177 131.642 36.0594 131.492 36.0927H131.292C131.125 36.1261 130.95 36.1511 130.767 36.1677C130.6 36.1844 130.425 36.1927 130.242 36.1927C130.042 36.1927 129.842 36.1844 129.642 36.1677C129.459 36.1511 129.275 36.1261 129.092 36.0927H129.292C129.125 36.0594 128.959 36.0177 128.792 35.9677C128.642 35.9344 128.492 35.8927 128.342 35.8427H129.117C128.75 35.7094 128.417 35.5427 128.117 35.3427H128.392C128.275 35.2594 128.167 35.1761 128.067 35.0927C127.967 35.0094 127.867 34.9261 127.767 34.8427H126.517L126.292 34.5927C126.275 34.5594 126.25 34.5177 126.217 34.4677C126.184 34.4177 126.15 34.3761 126.117 34.3427H126.867C126.834 34.2761 126.792 34.2177 126.742 34.1677C126.709 34.1011 126.675 34.0344 126.642 33.9677H126.417C126.417 33.9511 126.4 33.9094 126.367 33.8427H126.142L126.067 33.7177H126.092L125.942 33.3427H125.817C125.8 33.2761 125.784 33.2177 125.767 33.1677C125.75 33.1011 125.734 33.0344 125.717 32.9677H124.767C124.717 32.7844 124.692 32.6177 124.692 32.4677H125.517V32.2177C125.517 32.1344 125.517 32.0511 125.517 31.9677C125.517 31.8677 125.525 31.7844 125.542 31.7177H126.292C126.309 31.6344 126.325 31.5511 126.342 31.4677C126.359 31.3677 126.375 31.2844 126.392 31.2177H125.692L125.742 31.0927H125.767L125.817 30.9677H125.792C125.825 30.9011 125.859 30.8427 125.892 30.7927C125.925 30.7261 125.95 30.6594 125.967 30.5927H124.492L124.642 30.3427H124.092C124.142 30.2927 124.175 30.2511 124.192 30.2177H125.092C125.125 30.1844 125.159 30.1427 125.192 30.0927C125.225 30.0427 125.259 30.0011 125.292 29.9677H125.342C125.509 29.7677 125.684 29.6011 125.867 29.4677H123.817C123.934 29.3844 124.059 29.3011 124.192 29.2177C124.309 29.1177 124.434 29.0344 124.567 28.9677H125.942L126.167 28.8427H126.867C126.9 28.8094 126.942 28.7844 126.992 28.7677C127.042 28.7511 127.084 28.7344 127.117 28.7177H127.417C127.717 28.5677 128.042 28.4427 128.392 28.3427H129.917C130.15 28.2594 130.384 28.1927 130.617 28.1427C130.867 28.0761 131.125 28.0177 131.392 27.9677H130.767L131.167 27.8927L133.817 27.4677V27.3427H135.092V27.2177H132.692V27.0927H134.117C134.117 27.0094 134.117 26.9427 134.117 26.8927C134.117 26.8261 134.109 26.7677 134.092 26.7177C134.075 26.5677 134.017 26.4427 133.917 26.3427H133.492C133.475 26.3261 133.434 26.3011 133.367 26.2677L133.192 26.3427H132.767C132.7 26.3927 132.634 26.4511 132.567 26.5177C132.5 26.5677 132.425 26.6344 132.342 26.7177H132.367C132.184 26.9011 131.95 26.9927 131.667 26.9927H127.417C127.167 26.9927 127 26.9011 126.917 26.7177H126.892C126.842 26.6344 126.825 26.5427 126.842 26.4427V26.3427H127.242C127.259 26.3094 127.267 26.2677 127.267 26.2177H125.667C125.667 26.1511 125.684 26.0677 125.717 25.9677H129.317C129.317 25.9511 129.334 25.9094 129.367 25.8427H127.142C127.192 25.6761 127.267 25.5094 127.367 25.3427H127.792C127.842 25.2594 127.9 25.1761 127.967 25.0927C128.034 25.0094 128.1 24.9261 128.167 24.8427H126.292L126.517 24.5927H130.142C130.209 24.5261 130.275 24.4677 130.342 24.4177C130.425 24.3511 130.5 24.2844 130.567 24.2177H128.267L128.417 24.0927H127.717C127.8 24.0261 127.892 23.9677 127.992 23.9177C128.092 23.8511 128.192 23.7844 128.292 23.7177H129.467C129.817 23.5177 130.184 23.3511 130.567 23.2177H130.742C131.192 23.0511 131.692 22.9261 132.242 22.8427C132.809 22.7427 133.425 22.6927 134.092 22.6927C135.459 22.6927 136.617 22.8677 137.567 23.2177H137.367C137.55 23.2844 137.725 23.3594 137.892 23.4427C138.075 23.5261 138.25 23.6177 138.417 23.7177H137.242L137.767 24.0927H138.467L138.617 24.2177H140.917L141.292 24.5927H137.667C137.7 24.6261 137.734 24.6677 137.767 24.7177C137.8 24.7677 137.834 24.8094 137.867 24.8427H139.717C139.784 24.9094 139.842 24.9927 139.892 25.0927C139.959 25.1761 140.009 25.2594 140.042 25.3427H139.642L139.867 25.8427H142.092C142.125 25.9094 142.142 25.9511 142.142 25.9677H138.542C138.575 26.0011 138.592 26.0427 138.592 26.0927C138.609 26.1427 138.625 26.1844 138.642 26.2177H139.467C139.467 26.2344 139.467 26.2511 139.467 26.2677C139.484 26.2844 139.492 26.3094 139.492 26.3427H139.917L140.067 27.0927H138.617C138.617 27.1094 138.617 27.1261 138.617 27.1427C138.634 27.1594 138.642 27.1844 138.642 27.2177H141.042V27.3427H139.792V27.4677C139.809 27.5511 139.817 27.6344 139.817 27.7177C139.817 27.8011 139.817 27.8844 139.817 27.9677H140.467V28.3427H138.917V28.7177H138.642V28.8427H137.967V28.9677H136.592V29.4677H138.642V29.9677H138.592V30.2177H137.692V30.3427H138.242V30.5927H139.892V30.9677H139.592V31.2177H139.792V31.7177H139.642V32.4677H138.817V32.9677H139.767V33.3427H139.892V33.8427H140.117V33.9677H140.317V34.3427H139.542V34.5927H139.392ZM132.142 26.1927C132.025 26.1927 131.942 26.2011 131.892 26.2177H132.417C132.367 26.2011 132.275 26.1927 132.142 26.1927ZM132.317 30.5427L132.092 30.5927H132.317V30.5427ZM131.467 31.2177H132.167C131.984 31.3511 131.892 31.5177 131.892 31.7177H131.142V31.7927C131.142 31.9594 131.2 32.1011 131.317 32.2177C131.4 32.3344 131.567 32.4177 131.817 32.4677H132.417C132.667 32.4177 132.884 32.3344 133.067 32.2177C133.217 32.0844 133.359 31.9177 133.492 31.7177H133.617C133.65 31.6344 133.684 31.5594 133.717 31.4927C133.75 31.4094 133.775 31.3177 133.792 31.2177H133.592C133.592 31.1844 133.592 31.1594 133.592 31.1427C133.609 31.1261 133.617 31.1094 133.617 31.0927H133.642V30.9677H133.942C133.959 30.9011 133.967 30.8427 133.967 30.7927C133.967 30.7261 133.967 30.6594 133.967 30.5927H133.542L132.317 30.8677C132.25 30.8844 132.184 30.9011 132.117 30.9177C132.067 30.9344 132.017 30.9511 131.967 30.9677C131.917 30.9844 131.867 31.0011 131.817 31.0177C131.767 31.0344 131.725 31.0594 131.692 31.0927H131.667C131.634 31.1094 131.6 31.1261 131.567 31.1427C131.534 31.1594 131.5 31.1844 131.467 31.2177ZM131.592 32.4677H130.967C131.034 32.4844 131.134 32.4927 131.267 32.4927C131.317 32.4927 131.367 32.4927 131.417 32.4927C131.484 32.4927 131.542 32.4844 131.592 32.4677ZM153.069 24.8427H154.019V25.3427H153.969V25.8427H153.094V26.2177H153.319V26.7177H153.119V27.2177H152.669V27.3427H151.094V27.5177C151.094 27.5511 151.085 27.5844 151.069 27.6177C151.069 27.6511 151.06 27.6844 151.044 27.7177H151.619C151.535 28.0344 151.319 28.1927 150.969 28.1927H147.744C147.677 28.1927 147.61 28.1927 147.544 28.1927C147.494 28.1927 147.444 28.2011 147.394 28.2177H148.394C148.31 28.2344 148.235 28.2511 148.169 28.2677C148.102 28.2844 148.027 28.3094 147.944 28.3427H148.769C148.719 28.3594 148.644 28.4011 148.544 28.4677H149.019L148.869 28.5927H148.994C148.894 28.6927 148.819 28.8177 148.769 28.9677H148.019C147.985 29.0344 147.969 29.0761 147.969 29.0927H147.719C147.719 29.1094 147.71 29.1261 147.694 29.1427C147.694 29.1594 147.694 29.1844 147.694 29.2177H147.994C147.977 29.2511 147.969 29.2927 147.969 29.3427C147.969 29.3761 147.96 29.4177 147.944 29.4677H148.094V29.8427H147.744V30.0927H148.094V30.4677H148.469V30.9677H147.919V31.0927H147.519V31.2177H149.019V31.5927H148.269V31.8427H148.519V32.0927H147.944V32.5927H147.619V32.7177H147.294V33.0927H148.144V33.4677H147.694V33.8427H148.144V33.9677H148.094V34.2177H147.544V34.4677H147.944V34.9677H148.044V35.3427H147.944C147.91 35.5761 147.802 35.7427 147.619 35.8427H147.394C147.31 35.9094 147.194 35.9427 147.044 35.9427H142.294C142.144 35.9427 142.027 35.9094 141.944 35.8427H142.169C141.985 35.7427 141.877 35.5761 141.844 35.3427H141.944V34.9677H141.844V34.4677H141.444V34.2177H141.994V33.9677H142.044V33.8427H141.594V33.4677H142.044V33.0927H141.194V32.7177H141.519V32.5927H141.844V32.0927H142.419V31.8427H142.169V31.5927H142.919V31.2177H141.419V31.0927H141.819V30.9677H142.369V30.4677H141.994V30.0927H141.644V29.8427H141.994V29.4677H141.844V29.2177H141.544V29.0927H141.794V28.9677H142.544V28.5927H142.419V28.4677H141.969V28.3427H141.144V28.2177H140.144V27.7177H139.594V27.3427H141.169V27.2177H141.619V26.7177H141.819V26.2177H141.594V25.8427H142.469V25.3427H142.519V24.8427H141.569V24.4677H142.369V23.9677H141.594V23.8427H141.844V23.6177C141.844 23.5344 141.86 23.4427 141.894 23.3427H141.869C141.985 23.0761 142.194 22.9427 142.494 22.9427H146.869C147.152 22.9427 147.352 23.0761 147.469 23.3427H147.519C147.552 23.4427 147.569 23.5344 147.569 23.6177V23.8427H147.319V23.9677H148.094V24.0427L148.194 23.9677H148.244C148.277 23.9344 148.31 23.9094 148.344 23.8927C148.377 23.8761 148.402 23.8594 148.419 23.8427H148.469C148.802 23.6261 149.127 23.4594 149.444 23.3427H149.494C149.827 23.2094 150.16 23.1094 150.494 23.0427C150.827 22.9761 151.177 22.9427 151.544 22.9427H152.744C153.044 22.9427 153.252 23.0761 153.369 23.3427H153.319C153.352 23.4427 153.369 23.5344 153.369 23.6177V23.8427H153.344V23.9677H153.294V24.4677H153.069V24.8427ZM166.658 33.0927H166.058V33.3427H166.958V33.5927H167.783V33.9677H167.208V34.3427H168.883V34.7177H166.158V35.2177H166.358V35.2677C166.358 35.3011 166.35 35.3261 166.333 35.3427C166.3 35.5094 166.242 35.6344 166.158 35.7177H165.958C165.892 35.7844 165.842 35.8261 165.808 35.8427H166.658C166.575 35.9094 166.458 35.9427 166.308 35.9427H163.483C163.2 35.9427 162.917 35.9344 162.633 35.9177C162.367 35.9011 162.108 35.8761 161.858 35.8427H161.008C160.892 35.8261 160.775 35.8094 160.658 35.7927C160.542 35.7594 160.417 35.7344 160.283 35.7177H160.483C160.267 35.6677 160.058 35.6094 159.858 35.5427C159.675 35.4761 159.492 35.4094 159.308 35.3427H159.333C159.283 35.3094 159.233 35.2844 159.183 35.2677C159.133 35.2511 159.092 35.2344 159.058 35.2177H158.858C158.725 35.1344 158.592 35.0594 158.458 34.9927C158.325 34.9094 158.192 34.8177 158.058 34.7177H160.808C160.742 34.6511 160.667 34.5927 160.583 34.5427C160.517 34.4761 160.45 34.4094 160.383 34.3427H158.708L158.383 33.9677H158.983C158.933 33.9011 158.883 33.8427 158.833 33.7927C158.8 33.7261 158.767 33.6594 158.733 33.5927H157.908L157.758 33.3427H156.858C156.842 33.3094 156.825 33.2677 156.808 33.2177C156.792 33.1677 156.767 33.1261 156.733 33.0927H157.358L157.208 32.7177H157.708L157.633 32.4677C157.6 32.3677 157.583 32.2844 157.583 32.2177H159.558C159.542 32.1511 159.525 32.0927 159.508 32.0427C159.508 31.9761 159.508 31.9094 159.508 31.8427H156.658C156.658 31.8094 156.65 31.7844 156.633 31.7677C156.633 31.7511 156.633 31.7344 156.633 31.7177H156.558C156.558 31.6511 156.55 31.5927 156.533 31.5427C156.533 31.4761 156.533 31.4094 156.533 31.3427H156.458C156.458 31.2761 156.45 31.2177 156.433 31.1677C156.433 31.1011 156.433 31.0344 156.433 30.9677H156.783V30.8427H156.558V30.5927H156.358V30.0927H156.658V29.5927H156.358V29.2177H156.583V28.9677H156.608V28.5927H156.733V27.7177H156.783V27.3427H156.908V27.3177H154.933C154.683 27.3177 154.483 27.2011 154.333 26.9677H154.708C154.658 26.8677 154.633 26.7594 154.633 26.6427V26.4677H153.833V26.0927H154.008V25.5927H153.883V25.3427H153.933V25.0927H154.308V24.9677H153.683V24.5927H154.433V24.2177H154.283V23.9677H154.108V23.5927H153.958V23.4677H153.883C153.933 23.2177 154.092 23.0511 154.358 22.9677H154.508C154.558 22.9511 154.625 22.9427 154.708 22.9427H156.683V22.8427H156.783V22.4677H156.583V22.2177H156.558V21.8427H156.458V21.7177H155.858V21.4677H155.283V21.3427H155.483V21.2177H156.058V20.7177H156.283V20.4677H155.483V20.2177H156.708V19.8427H156.583V19.7177H156.308V19.4677H156.558V19.3427H156.308V18.9677H156.533V18.8677C156.533 18.7844 156.55 18.6927 156.583 18.5927H156.908C157.025 18.3261 157.233 18.1927 157.533 18.1927H161.908C162.175 18.1927 162.383 18.3261 162.533 18.5927H162.208C162.242 18.6927 162.258 18.7844 162.258 18.8677V18.9677H162.033V19.3427H162.283V19.4677H162.033V19.7177H162.308V19.8427H162.433V20.2177H161.208V20.4677H162.008V20.7177H161.783V21.2177H161.208V21.3427H161.008V21.4677H161.583V21.7177H162.183V21.8427H162.283V22.2177H162.308V22.4677H162.508V22.8427H162.408V22.9427H165.558C165.642 22.9427 165.7 22.9511 165.733 22.9677H165.583C165.817 23.0511 165.975 23.2177 166.058 23.4677H166.133C166.133 23.4844 166.133 23.5011 166.133 23.5177C166.15 23.5344 166.158 23.5594 166.158 23.5927H166.308V23.9677H166.483V24.2177H166.633V24.5927H165.883V24.9677H166.508V25.0927H166.133V25.3427H166.083V25.5927H166.208V26.0927H166.033V26.4677H166.833V26.6427C166.833 26.7094 166.825 26.7677 166.808 26.8177C166.792 26.8677 166.767 26.9177 166.733 26.9677H166.383C166.233 27.2011 166.033 27.3177 165.783 27.3177H162.633V27.3427H162.508V27.7177H162.458V28.5927H162.333V28.9677H162.308V29.2177H162.083V29.5927H162.383V30.0927H162.083C162.083 30.1761 162.083 30.2594 162.083 30.3427C162.1 30.4261 162.117 30.5094 162.133 30.5927H162.358C162.392 30.6927 162.425 30.7761 162.458 30.8427H162.658L162.733 30.9677H162.383C162.567 31.2011 162.85 31.3177 163.233 31.3177H165.508C165.592 31.3177 165.65 31.3261 165.683 31.3427H165.758C165.958 31.3927 166.1 31.5177 166.183 31.7177H166.258C166.258 31.7344 166.258 31.7511 166.258 31.7677C166.275 31.7844 166.283 31.8094 166.283 31.8427H169.133C169.133 31.8594 169.133 31.8844 169.133 31.9177C169.15 31.9344 169.158 31.9594 169.158 31.9927V32.2177H167.158V32.7177H166.658V33.0927Z" fill="white"/>
</svg>
